<svg width="204" height="192" version="1.1" xmlns="http://www.w3.org/2000/svg" desc="Created with imagetracer.js version 1.2.6" ><path fill="rgb(224,224,224)" stroke="rgb(224,224,224)" stroke-width="1" opacity="1" d="M 69.5 52 L 75 52.5 Q 68 52 65.5 56 L 67.5 53 L 69.5 52 Z " /><path fill="rgb(224,224,224)" stroke="rgb(224,224,224)" stroke-width="1" opacity="1" d="M 139.5 52 L 141 52.5 L 141 117 L 101 116.5 L 140 116 L 140 53.5 L 139.5 52 Z " /><path fill="rgb(224,224,224)" stroke="rgb(224,224,224)" stroke-width="1" opacity="1" d="M 79.5 58 L 82 58.5 L 79.5 59 L 79.5 58 Z " /><path fill="rgb(224,224,224)" stroke="rgb(224,224,224)" stroke-width="1" opacity="1" d="M 83.5 58 L 84 62.5 Q 83 65 78.5 64 L 78.5 63 L 83 63 L 83.5 58 Z " /><path fill="rgb(224,224,224)" stroke="rgb(224,224,224)" stroke-width="1" opacity="1" d="M 90 58 L 95 58.5 L 91 59 Q 88.8 65 95.5 63 L 95.5 64 L 90 64 L 90 58 Z " /><path fill="rgb(224,224,224)" stroke="rgb(224,224,224)" stroke-width="1" opacity="1" d="M 103 58 L 109 58.5 L 104 59 Q 101.8 65 108.5 63 L 108.5 64 L 103 64 L 103 58 Z " /><path fill="rgb(224,224,224)" stroke="rgb(224,224,224)" stroke-width="1" opacity="1" d="M 116.5 58 L 122 58 L 122 64 L 116 63.5 L 121 63 Q 123.3 57 116.5 59 L 116.5 58 Z " /><path fill="rgb(224,224,224)" stroke="rgb(224,224,224)" stroke-width="1" opacity="1" d="M 129.5 58 L 135 58 L 135 64 L 129 63.5 L 134 63 Q 136.3 57 129.5 59 L 129.5 58 Z " /><path fill="rgb(224,224,224)" stroke="rgb(224,224,224)" stroke-width="1" opacity="1" d="M 66.5 61 L 73.5 69 L 66.5 61 Z " /><path fill="rgb(224,224,224)" stroke="rgb(224,224,224)" stroke-width="1" opacity="1" d="M 63 67 L 67 69.5 L 66 75 L 64 74.5 L 66 69.5 L 64 68.5 L 63.5 71 L 63 67 Z " /><path fill="rgb(224,224,224)" stroke="rgb(224,224,224)" stroke-width="1" opacity="1" d="M 71.5 73 L 71 74.5 L 70.5 77 L 70 74.5 L 71.5 73 Z " /><path fill="rgb(224,224,224)" stroke="rgb(224,224,224)" stroke-width="1" opacity="1" d="M 73.5 74 L 74.5 76 L 73.5 74 Z " /><path fill="rgb(224,224,224)" stroke="rgb(224,224,224)" stroke-width="1" opacity="1" d="M 83.5 74 L 92 78.5 L 90.5 79 L 84.5 76 L 83.5 74 Z " /><path fill="rgb(224,224,224)" stroke="rgb(224,224,224)" stroke-width="1" opacity="1" d="M 76.5 76 L 77.5 78 L 76.5 76 Z " /><path fill="rgb(224,224,224)" stroke="rgb(224,224,224)" stroke-width="1" opacity="1" d="M 76.5 79 L 77 80.5 L 76 84 L 74 83.5 L 76.5 79 Z " /><path fill="rgb(224,224,224)" stroke="rgb(224,224,224)" stroke-width="1" opacity="1" d="M 82.5 80 L 82 81.5 L 81.5 83 L 81 81.5 L 82.5 80 Z " /><path fill="rgb(224,224,224)" stroke="rgb(224,224,224)" stroke-width="1" opacity="1" d="M 71.5 81 L 72.5 83 L 71.5 81 Z " /><path fill="rgb(224,224,224)" stroke="rgb(224,224,224)" stroke-width="1" opacity="1" d="M 86.5 82 L 90 84.5 L 88 85.5 Q 90.2 84.3 87.5 83 L 86.5 82 Z " /><path fill="rgb(224,224,224)" stroke="rgb(224,224,224)" stroke-width="1" opacity="1" d="M 109 85 L 111 85.5 L 108.5 89 L 109 87.5 L 109 85 Z " /><path fill="rgb(224,224,224)" stroke="rgb(224,224,224)" stroke-width="1" opacity="1" d="M 79.5 86 L 83 88.5 L 81.5 88 L 79.5 86 Z " /><path fill="rgb(224,224,224)" stroke="rgb(224,224,224)" stroke-width="1" opacity="1" d="M 94.5 86 L 97 86.5 L 94.5 87 L 94.5 86 Z " /><path fill="rgb(224,224,224)" stroke="rgb(224,224,224)" stroke-width="1" opacity="1" d="M 93.5 88 L 93 89.5 L 91.5 93 L 91 91.5 L 93.5 88 Z " /><path fill="rgb(224,224,224)" stroke="rgb(224,224,224)" stroke-width="1" opacity="1" d="M 106.5 92 L 105.5 94 L 106.5 92 Z " /><path fill="rgb(224,224,224)" stroke="rgb(224,224,224)" stroke-width="1" opacity="1" d="M 96.5 94 L 99 94.5 L 96.5 95 L 96.5 94 Z " /><path fill="rgb(224,224,224)" stroke="rgb(224,224,224)" stroke-width="1" opacity="1" d="M 104.5 95 L 104 96.5 L 102.5 99 L 103 97.5 L 104.5 95 Z " /><path fill="rgb(224,224,224)" stroke="rgb(224,224,224)" stroke-width="1" opacity="1" d="M 101.5 100 L 101 101.5 L 99.5 104 L 100 102.5 L 101.5 100 Z " /><path fill="rgb(224,224,224)" stroke="rgb(224,224,224)" stroke-width="1" opacity="1" d="M 116.5 104 Q 121 103 122 105.5 Q 123 110 120.5 111 L 116 110.5 L 121 110 L 121 105 L 116.5 105 L 116.5 104 Z " /><path fill="rgb(224,224,224)" stroke="rgb(224,224,224)" stroke-width="1" opacity="1" d="M 133.5 104 Q 136 105 135 109.5 Q 134 112 129.5 111 L 129.5 110 Q 136.3 112.3 134 105.5 L 133.5 104 Z " /><path fill="rgb(224,224,224)" stroke="rgb(224,224,224)" stroke-width="1" opacity="1" d="M 103 105 L 109 105 L 109 109.5 L 108 109.5 L 107.5 108 L 106.5 111 L 103 110 L 103 105 Z " /><path fill="rgb(224,224,224)" stroke="rgb(224,224,224)" stroke-width="1" opacity="1" d="M 92.5 115 L 92 116.5 L 90.5 119 L 91 117.5 L 92.5 115 Z " /><path fill="rgb(224,224,224)" stroke="rgb(224,224,224)" stroke-width="1" opacity="1" d="M 88.5 122 L 87.5 124 L 88.5 122 Z " /><path fill="rgb(224,224,224)" stroke="rgb(224,224,224)" stroke-width="1" opacity="1" d="M 94.5 123 L 78.5 140 L 78 138.5 L 81.5 133 L 81 134.5 L 81.5 136 L 94.5 123 Z " /><path fill="rgb(224,224,224)" stroke="rgb(224,224,224)" stroke-width="1" opacity="1" d="M 83.5 130 L 82.5 132 L 83.5 130 Z " /><path fill="rgb(255,255,255)" stroke="rgb(255,255,255)" stroke-width="1" opacity="1" d="M 0 0 L 204 0 L 204 192 L 0 192 L 0 0 Z M 70 52 L 65 56 L 66 62 Q 82 79 109 85 L 107 92 L 78 139 L 79 140 L 95 123 L 101 117 L 141 117 L 141 52 L 70 52 Z M 63 67 L 64 72 Q 63 76 66 75 L 67 70 L 63 67 Z M 72 73 L 69 80 Q 71 84 76 84 L 78 78 L 72 73 Z M 83 80 L 79 87 Q 82 91 87 90 L 90 85 L 83 80 Z M 94 86 L 91 93 L 99 95 L 102 88 L 94 86 Z " /><path fill="rgb(255,255,255)" stroke="rgb(255,255,255)" stroke-width="1" opacity="1" d="M 78.5 58 L 81.5 59 L 83 58.5 L 83 63 L 78 63 L 78.5 58 Z " /><path fill="rgb(255,255,255)" stroke="rgb(255,255,255)" stroke-width="1" opacity="1" d="M 95.5 58 L 96 63 Q 88.9 65.4 91 59 L 95.5 58 Z " /><path fill="rgb(255,255,255)" stroke="rgb(255,255,255)" stroke-width="1" opacity="1" d="M 104 59 L 109 59.5 L 108 61.5 L 108.5 63 Q 101.8 65 104 59 Z " /><path fill="rgb(255,255,255)" stroke="rgb(255,255,255)" stroke-width="1" opacity="1" d="M 116 59 Q 123.1 56.6 121 63 Q 113.9 65.4 116 59 Z " /><path fill="rgb(255,255,255)" stroke="rgb(255,255,255)" stroke-width="1" opacity="1" d="M 129 59 Q 136.1 56.6 134 63 Q 126.9 65.4 129 59 Z " /><path fill="rgb(255,255,255)" stroke="rgb(255,255,255)" stroke-width="1" opacity="1" d="M 116 105 Q 123.5 102.5 121 110 Q 113.5 112.5 116 105 Z " /><path fill="rgb(255,255,255)" stroke="rgb(255,255,255)" stroke-width="1" opacity="1" d="M 129 105 Q 136.5 102.5 134 110 Q 126.5 112.5 129 105 Z " /><path fill="rgb(255,255,255)" stroke="rgb(255,255,255)" stroke-width="1" opacity="1" d="M 107.5 108 L 108 110 L 106 109.5 L 107.5 108 Z " /><path fill="rgb(1,1,1)" stroke="rgb(1,1,1)" stroke-width="1" opacity="1" d="M 70.5 53 L 140 53 L 140 76.5 L 139 77.5 L 138.5 116 L 137.5 115 L 101.5 115 L 81.5 136 L 83 133.5 L 107 91.5 L 110 88.5 L 111 84 Q 83.2 78.9 67 61.5 L 66 56.5 L 70.5 53 Z M 77 57 Q 75 63 79 65 Q 83 66 84 64 L 84 57 L 77 57 Z M 90 57 Q 88 63 92 65 Q 96 66 97 64 L 97 57 L 90 57 Z M 103 57 L 103 65 L 109 65 Q 111 64 110 59 Q 108 55 103 57 Z M 116 57 L 116 65 L 122 65 Q 124 64 123 59 Q 121 55 116 57 Z M 130 57 Q 127 58 128 64 Q 130 67 135 65 L 135 57 L 130 57 Z M 104 104 Q 101 105 102 110 Q 103 112 109 111 Q 111 110 110 106 Q 109 103 104 104 Z M 117 104 Q 114 105 115 110 Q 116 112 122 111 Q 124 110 123 106 Q 122 103 117 104 Z M 128 104 L 128 111 L 135 111 L 135 104 L 128 104 Z " /><path fill="rgb(1,1,1)" stroke="rgb(1,1,1)" stroke-width="1" opacity="1" d="M 71 75 L 77 78.5 L 74.5 83 L 70 79.5 L 71 75 Z " /><path fill="rgb(1,1,1)" stroke="rgb(1,1,1)" stroke-width="1" opacity="1" d="M 83.5 81 L 89 84.5 L 85.5 89 L 81 86.5 L 83.5 81 Z " /><path fill="rgb(1,1,1)" stroke="rgb(1,1,1)" stroke-width="1" opacity="1" d="M 95.5 87 L 101 89.5 L 97.5 94 L 93 91.5 L 95.5 87 Z " /><path fill="rgb(98,98,98)" stroke="rgb(98,98,98)" stroke-width="1" opacity="1" d="M 75.5 52 L 139 52.5 L 75.5 53 L 75.5 52 Z " /><path fill="rgb(98,98,98)" stroke="rgb(98,98,98)" stroke-width="1" opacity="1" d="M 67.5 54 L 66 56.5 L 65.5 59 L 65 56.5 L 67.5 54 Z " /><path fill="rgb(98,98,98)" stroke="rgb(98,98,98)" stroke-width="1" opacity="1" d="M 77 57 L 84 57.5 L 78 58 L 78 64 L 82.5 64 L 84 63.5 Q 83 66 78.5 65 Q 75.3 63.1 77 57 Z " /><path fill="rgb(98,98,98)" stroke="rgb(98,98,98)" stroke-width="1" opacity="1" d="M 90.5 57 Q 100.3 53.8 97 63.5 Q 96 66 91.5 65 L 91.5 64 L 96 64 L 96 58 L 90.5 58 L 90.5 57 Z " /><path fill="rgb(98,98,98)" stroke="rgb(98,98,98)" stroke-width="1" opacity="1" d="M 103.5 57 Q 108.8 55.8 110 58.5 Q 111.3 63.8 108.5 65 L 103 64.5 L 109 64 L 109 58 L 103.5 58 L 103.5 57 Z " /><path fill="rgb(98,98,98)" stroke="rgb(98,98,98)" stroke-width="1" opacity="1" d="M 116.5 57 Q 121.8 55.8 123 58.5 Q 124.3 63.8 121.5 65 L 116 64.5 L 122 64 L 122 58 L 116.5 58 L 116.5 57 Z " /><path fill="rgb(98,98,98)" stroke="rgb(98,98,98)" stroke-width="1" opacity="1" d="M 129.5 57 L 135 57.5 L 129 58 L 129 64 L 134.5 64 L 134.5 65 Q 129.3 66.3 128 63.5 Q 126.8 58.3 129.5 57 Z " /><path fill="rgb(98,98,98)" stroke="rgb(98,98,98)" stroke-width="1" opacity="1" d="M 71.5 65 L 74.5 69 L 71.5 65 Z " /><path fill="rgb(98,98,98)" stroke="rgb(98,98,98)" stroke-width="1" opacity="1" d="M 64.5 68 L 66 71.5 L 64.5 74 L 64.5 68 Z " /><path fill="rgb(98,98,98)" stroke="rgb(98,98,98)" stroke-width="1" opacity="1" d="M 71.5 74 L 77 77.5 L 75.5 77 Q 70.8 76.2 71.5 74 Z " /><path fill="rgb(98,98,98)" stroke="rgb(98,98,98)" stroke-width="1" opacity="1" d="M 139.5 77 L 140 115.5 L 139 115.5 L 139.5 77 Z " /><path fill="rgb(98,98,98)" stroke="rgb(98,98,98)" stroke-width="1" opacity="1" d="M 72.5 81 L 73.5 83 L 72.5 81 Z " /><path fill="rgb(98,98,98)" stroke="rgb(98,98,98)" stroke-width="1" opacity="1" d="M 101.5 82 L 107 83.5 L 104.5 84 L 101.5 83 L 101.5 82 Z " /><path fill="rgb(98,98,98)" stroke="rgb(98,98,98)" stroke-width="1" opacity="1" d="M 108.5 84 L 111 84.5 L 108.5 85 L 108.5 84 Z " /><path fill="rgb(98,98,98)" stroke="rgb(98,98,98)" stroke-width="1" opacity="1" d="M 96.5 87 L 101 88.5 L 98.5 89 L 96.5 87 Z " /><path fill="rgb(98,98,98)" stroke="rgb(98,98,98)" stroke-width="1" opacity="1" d="M 86.5 88 L 85.5 90 L 86.5 88 Z " /><path fill="rgb(98,98,98)" stroke="rgb(98,98,98)" stroke-width="1" opacity="1" d="M 109.5 88 L 108.5 90 L 109.5 88 Z " /><path fill="rgb(98,98,98)" stroke="rgb(98,98,98)" stroke-width="1" opacity="1" d="M 100.5 90 L 100 91.5 L 98.5 94 L 99 92.5 L 100.5 90 Z " /><path fill="rgb(98,98,98)" stroke="rgb(98,98,98)" stroke-width="1" opacity="1" d="M 92.5 91 L 93.5 93 Q 90.7 93.7 92.5 91 Z " /><path fill="rgb(98,98,98)" stroke="rgb(98,98,98)" stroke-width="1" opacity="1" d="M 103.5 98 L 102.5 100 L 103.5 98 Z " /><path fill="rgb(98,98,98)" stroke="rgb(98,98,98)" stroke-width="1" opacity="1" d="M 100.5 103 L 99.5 105 L 100.5 103 Z " /><path fill="rgb(98,98,98)" stroke="rgb(98,98,98)" stroke-width="1" opacity="1" d="M 103.5 104 Q 108.8 102.8 110 105.5 Q 111 110 108.5 111 L 107 110.5 L 109 110 L 109 105 L 103 105 L 103 110 L 105.5 110 L 105.5 111 L 102 109.5 Q 101 105 103.5 104 Z " /><path fill="rgb(98,98,98)" stroke="rgb(98,98,98)" stroke-width="1" opacity="1" d="M 121.5 104 Q 124 105 123 109.5 L 121 110.5 L 122 105.5 L 121.5 104 Z " /><path fill="rgb(98,98,98)" stroke="rgb(98,98,98)" stroke-width="1" opacity="1" d="M 128.5 104 L 129 110.5 L 128 110.5 L 128.5 104 Z " /><path fill="rgb(98,98,98)" stroke="rgb(98,98,98)" stroke-width="1" opacity="1" d="M 130.5 104 L 133 104.5 L 130.5 105 L 130.5 104 Z " /><path fill="rgb(98,98,98)" stroke="rgb(98,98,98)" stroke-width="1" opacity="1" d="M 115.5 105 L 116 109.5 L 115 109.5 L 115.5 105 Z " /><path fill="rgb(98,98,98)" stroke="rgb(98,98,98)" stroke-width="1" opacity="1" d="M 95.5 111 L 95 112.5 L 93.5 115 L 94 113.5 L 95.5 111 Z " /><path fill="rgb(98,98,98)" stroke="rgb(98,98,98)" stroke-width="1" opacity="1" d="M 101.5 115 L 138 115.5 L 101.5 116 L 100.5 117 L 101.5 115 Z " /><path fill="rgb(98,98,98)" stroke="rgb(98,98,98)" stroke-width="1" opacity="1" d="M 98.5 118 L 88.5 129 L 98.5 118 Z " /><path fill="rgb(98,98,98)" stroke="rgb(98,98,98)" stroke-width="1" opacity="1" d="M 86.5 126 L 86 127.5 L 84.5 130 L 85 128.5 L 86.5 126 Z " /><path fill="rgb(98,98,98)" stroke="rgb(98,98,98)" stroke-width="1" opacity="1" d="M 83.5 131 L 83 132.5 L 81.5 135 L 82 133.5 L 83.5 131 Z " /></svg>